<svg width="64" height="35" viewBox="0 0 64 35" fill="none" xmlns="http://www.w3.org/2000/svg">
<g clip-path="url(#clip0_349_1255)">
<path d="M48.3761 22.9523C49.0712 22.9523 49.6027 23.4162 49.6027 24.5225V33.016C49.6027 34.1758 49.0712 34.6487 48.3761 34.6487C47.6811 34.6487 47.1496 34.1848 47.1496 33.016V24.692C47.1496 23.3538 47.6321 22.9434 48.3761 22.9434" fill="#005BA1"/>
<path d="M24.9657 29.2332V27.2526C24.9657 25.9678 24.4342 25.3879 23.4693 25.3879H23.1504C22.1937 25.3879 21.654 25.9678 21.654 27.2526V29.2332H24.9575H24.9657ZM21.5477 31.4458V33.016C21.5477 34.1758 21.0162 34.6487 20.3212 34.6487C19.6262 34.6487 19.0947 34.1848 19.0947 33.016V27.2526C19.0947 24.576 20.4848 22.9434 22.668 22.9434H23.6247C25.8651 22.9434 27.2552 24.576 27.2552 27.2526V33.016C27.2552 34.1758 26.7237 34.6487 26.0286 34.6487C25.3336 34.6487 24.8021 34.1848 24.8021 33.016V31.4458H21.5477Z" fill="#005BA1"/>
<path d="M62.7739 22.9523C63.4689 22.9523 64.0004 23.4162 64.0004 24.5225V33.016C64.0004 34.1758 63.4689 34.6487 62.7739 34.6487C62.0788 34.6487 61.5473 34.1848 61.5473 33.016V24.692C61.6046 23.3538 62.0788 22.9434 62.7739 22.9434" fill="#005BA1"/>
<path d="M53.6572 28.0156L53.7144 33.0207C53.7144 34.1805 53.1829 34.6534 52.4879 34.6534C51.7929 34.6534 51.2614 34.1895 51.2614 33.0207V24.1793C51.2614 23.3674 51.6866 22.8945 52.4388 22.8945C53.1911 22.8945 53.3955 23.1889 53.7716 23.7689L57.4512 29.7018L57.394 24.5183C57.394 23.412 57.9255 22.9481 58.6205 22.9481C59.3155 22.9481 59.847 23.412 59.847 24.5183V33.4222C59.847 34.2341 59.4218 34.7069 58.6696 34.7069C57.9173 34.7069 57.7129 34.4125 57.3367 33.7791L53.6572 28.0156Z" fill="#005BA1"/>
<path d="M39.4114 29.9291V33.0161C39.4114 34.1759 38.8799 34.6487 38.1849 34.6487C37.4898 34.6487 36.9583 34.1848 36.9583 33.0161V24.5761C36.9583 23.4698 37.4408 23.0059 38.1849 23.0059C38.929 23.0059 39.4114 23.4698 39.4114 24.5761V27.4846H42.9274V24.5761C42.9274 23.4698 43.4589 23.0059 44.1539 23.0059C44.849 23.0059 45.3805 23.4698 45.3805 24.5761V33.0696C45.3805 34.2294 44.898 34.7023 44.1539 34.7023C43.4098 34.7023 42.9274 34.2383 42.9274 33.0696V29.9827H39.4114V29.9202V29.9291Z" fill="#005BA1"/>
<path d="M2.40399 32.3736H3.90035C4.70167 32.3736 5.12687 31.9097 5.12687 31.0354C5.12687 30.161 4.59538 29.6971 3.58145 29.6971H2.40399V32.3736ZM2.40399 27.4845H3.25438C3.99847 27.4845 4.53814 27.0206 4.53814 26.2622C4.53814 25.5039 4.162 25.156 3.36067 25.156H2.40399V27.4845ZM5.87096 28.4213C6.93395 28.8317 7.57992 29.938 7.57992 31.0978C7.57992 33.3104 6.29615 34.7022 3.73681 34.7022H1.16929C0.318896 34.7022 0 34.4078 0 33.5959V24.0497C0 23.3538 0.318896 22.9434 1.16929 22.9434H3.3525C5.80554 22.9434 6.81947 24.1656 6.81947 26.0303C6.76223 27.1901 6.33704 28.0109 5.86278 28.4124" fill="#005BA1"/>
<path d="M33.1723 31.2763C33.1723 30.8659 33.066 30.5179 32.8534 30.3484C32.6408 30.1165 32.1584 29.8845 31.5206 29.6525C29.7053 28.9566 28.7486 27.9039 28.7486 26.1641C28.7486 24.4244 29.0675 24.246 29.7625 23.6036C30.4576 22.9612 31.308 22.6133 32.3791 22.6133C34.0308 22.6133 35.102 23.3092 35.102 24.3619C35.102 25.4147 34.7259 25.5842 34.039 25.5842C33.3522 25.5842 33.6138 25.5218 33.344 25.3523C33.0742 25.1738 32.7553 25.0578 32.3873 25.0578C31.6432 25.0578 31.218 25.4682 31.218 26.1641C31.218 26.86 31.7005 27.1544 32.6571 27.5648C33.7774 28.0288 34.5215 28.4927 35.0039 29.0191C35.4863 29.5455 35.6989 30.2414 35.6989 31.2317C35.6989 32.222 35.3228 33.3283 34.6359 34.0242C33.8918 34.7201 32.9842 35.0145 31.864 35.0145C30.7438 35.0145 30.2123 34.8361 29.6235 34.4346C29.0348 34.0242 28.7159 33.6227 28.7159 33.0963C28.7159 32.5699 29.1983 31.8205 29.9424 31.8205C30.6865 31.8205 30.4249 31.9365 30.7928 32.1149C31.169 32.3469 31.5369 32.4629 31.9703 32.4629C32.7144 32.5253 33.1968 31.999 33.1968 31.3031" fill="#005BA1"/>
<path d="M11.4644 29.9291V33.0161C11.4644 34.1759 10.9329 34.6487 10.2379 34.6487C9.54285 34.6487 9.01136 34.1848 9.01136 33.0161V24.5761C9.01136 23.4698 9.49379 23.0059 10.2379 23.0059C10.982 23.0059 11.4644 23.4698 11.4644 24.5761V27.4846H14.9804V24.5761C14.9804 23.4698 15.5119 23.0059 16.207 23.0059C16.902 23.0059 17.4335 23.4698 17.4335 24.5761V33.0696C17.4335 34.2294 16.9511 34.7023 16.207 34.7023C15.4629 34.7023 14.9804 34.2383 14.9804 33.0696V29.9827H11.4644V29.9202V29.9291Z" fill="#005BA1"/>
<path fill-rule="evenodd" clip-rule="evenodd" d="M34.246 13.3426L33.8699 14.101C33.1258 15.5017 32.0546 16.599 30.779 17.4198C30.6727 17.4823 30.5664 17.5358 30.4029 17.5983C30.2966 17.6607 30.1331 17.7143 30.0268 17.7767C32.3735 17.3128 34.5077 15.9121 36.0531 13.8779C37.3369 12.1293 38.7187 9.33675 38.5061 6.19629C38.3426 3.17182 36.7481 0.843248 34.4014 0.200882C31.8911 -0.495014 30.0268 0.727265 28.6449 2.69897C28.4814 2.93094 28.326 3.22535 28.2197 3.45732C30.084 2.46701 32.2754 2.00307 34.0825 3.45732C35.6851 4.74205 36.1594 7.29367 35.7342 9.56872C35.4644 10.791 35.0392 11.8973 34.4014 12.9411C34.4586 13.0036 34.2951 13.2356 34.2378 13.3515" fill="#E76120"/>
<path fill-rule="evenodd" clip-rule="evenodd" d="M27.7848 17.537C27.6212 17.6529 26.9344 17.421 26.7708 17.421C27.2533 17.7154 27.7848 17.8849 28.3162 17.9474C28.905 17.9474 29.4937 17.8849 30.0743 17.7154C30.1806 17.6529 30.3441 17.5994 30.4504 17.537C30.5567 17.4745 30.663 17.421 30.8265 17.3585C32.1103 16.6002 33.1733 15.4404 33.9174 14.0396L34.2935 13.3437C34.3507 13.1653 34.457 12.9958 34.5061 12.8798C35.0376 11.5951 35.3074 10.2033 35.2502 8.80258C35.193 8.04423 34.9804 7.28588 34.6615 6.58999C34.13 5.59967 33.2714 4.90378 32.3147 4.55583C31.358 4.20788 30.2869 4.32386 29.3302 4.78779C28.3162 5.31418 27.5149 6.12606 26.9834 7.23235C26.9262 7.41079 26.8199 7.52677 26.7708 7.69628C26.9344 7.63383 27.0897 7.51785 27.2533 7.46432C27.7848 7.1699 28.3162 7.00039 28.8559 6.8844C30.4013 6.58999 32.004 7.17882 32.8053 8.57061C33.1815 9.38249 33.3368 10.3193 33.1815 11.1936C33.0179 12.7638 32.4374 14.2805 31.5297 15.5563C31.3171 15.8508 31.1045 16.1363 30.8347 16.3682C30.5649 16.6002 30.3032 16.8321 30.0334 17.0106C29.4446 17.305 28.3817 17.7689 27.7929 17.537" fill="#009844"/>
<path fill-rule="evenodd" clip-rule="evenodd" d="M26.7736 17.4213C26.9371 17.4837 27.624 17.6532 27.7875 17.5373C27.6812 17.4748 27.5177 17.4213 27.4686 17.3588C27.3623 17.2428 27.3051 17.1269 27.256 17.0109C26.9371 16.199 27.1988 14.7447 27.3623 13.9864C27.5259 13.344 27.6812 12.7641 27.8448 12.1842L28.3763 10.4355H26.2421C26.0295 11.0155 25.866 11.5954 25.7597 12.2377C25.3835 13.8704 25.0156 16.6629 26.7736 17.4213Z" fill="#005BA1"/>
<path fill-rule="evenodd" clip-rule="evenodd" d="M26.1894 8.86507L26.3529 9.0435C26.4592 8.92752 26.6228 8.81154 26.7291 8.69556C26.8926 8.57957 27.1052 8.51712 27.3178 8.51712C27.5304 8.51712 27.6939 8.57957 27.9065 8.69556C27.9638 8.75801 28.0701 8.81154 28.1191 8.87399C28.1764 8.93644 28.2254 8.98997 28.3317 9.05243L28.4953 8.87399C28.389 8.69556 28.1764 8.57957 28.0128 8.46359C27.8002 8.34761 27.5876 8.28516 27.3178 8.28516C27.048 8.28516 26.8354 8.34761 26.6228 8.46359C26.4592 8.64203 26.3039 8.75801 26.1976 8.87399" fill="#005BA1"/>
<path fill-rule="evenodd" clip-rule="evenodd" d="M26.4527 9.21393L26.6162 9.39237C26.7797 9.21393 26.9351 9.1604 27.1477 9.09795C27.3603 9.0355 27.5238 9.09795 27.7364 9.1604C27.8427 9.22285 27.949 9.27638 28.0062 9.39237L28.2188 9.1604C28.0062 8.92843 27.6874 8.75 27.3685 8.75C27.0496 8.75 27.0496 8.81245 26.886 8.86598C26.7225 8.98197 26.5671 9.09795 26.4608 9.21393" fill="#005BA1"/>
<path fill-rule="evenodd" clip-rule="evenodd" d="M26.7708 9.56706L26.9344 9.74549L26.9916 9.68304C27.0979 9.62059 27.2042 9.56706 27.3105 9.56706C27.5803 9.56706 27.5803 9.68304 27.7357 9.74549L27.842 9.56706C27.7848 9.50461 27.6785 9.38862 27.5722 9.38862C27.4659 9.32617 27.3596 9.32617 27.2533 9.32617C27.147 9.32617 27.0407 9.32617 26.9344 9.38862L26.7708 9.56706Z" fill="#005BA1"/>
<path fill-rule="evenodd" clip-rule="evenodd" d="M27.0423 9.91867L27.3612 10.2666L27.631 9.91867C27.5928 9.87703 27.5574 9.83837 27.5247 9.80269C27.4675 9.80269 27.4184 9.74023 27.3612 9.74023C27.3039 9.74023 27.2549 9.74023 27.1976 9.80269C27.0913 9.80269 27.0913 9.86514 27.0341 9.91867" fill="#005BA1"/>
</g>
<defs>
<clipPath id="clip0_349_1255">
<rect width="64" height="35" fill="white"/>
</clipPath>
</defs>
</svg>
